<svg xmlns="http://www.w3.org/2000/svg" xmlns:xlink="http://www.w3.org/1999/xlink" width="500" zoomAndPan="magnify" viewBox="0 0 375 374.999991" height="500" preserveAspectRatio="xMidYMid meet" version="1.0"><defs><clipPath id="4e760217d5"><path d="M 54 228 L 321 228 L 321 367.320312 L 54 367.320312 Z M 54 228 " clip-rule="nonzero"/></clipPath><clipPath id="ec0be8f108"><path d="M 222 13 L 366.71875 13 L 366.71875 168 L 222 168 Z M 222 13 " clip-rule="nonzero"/></clipPath><clipPath id="0e95805d6b"><path d="M 8.21875 13 L 170 13 L 170 176 L 8.21875 176 Z M 8.21875 13 " clip-rule="nonzero"/></clipPath></defs><path fill="#e9d5e9" d="M 315.328125 216.890625 C 315.328125 216.890625 193.644531 294.707031 193.585938 294.769531 C 190.089844 296.988281 185.078125 296.988281 181.652344 294.769531 L 59.847656 216.953125 C 60.484375 215.683594 61.117188 214.539062 61.875 213.398438 C 69.367188 201.523438 83.082031 194.925781 97.101562 194.925781 L 278.070312 194.925781 C 292.09375 194.925781 305.742188 201.523438 313.292969 213.332031 C 313.988281 214.476562 314.6875 215.683594 315.328125 216.890625 " fill-opacity="1" fill-rule="nonzero"/><g clip-path="url(#4e760217d5)"><path fill="#e9d5e9" d="M 320.402344 228.757812 L 320.402344 322.820312 C 320.402344 347.386719 300.46875 367.320312 275.910156 367.320312 L 99.261719 367.320312 C 74.695312 367.320312 54.769531 347.386719 54.769531 322.820312 L 54.769531 228.824219 L 174.796875 305.496094 C 182.410156 310.382812 192.757812 310.382812 200.4375 305.496094 L 320.402344 228.757812 " fill-opacity="1" fill-rule="nonzero"/></g><g clip-path="url(#ec0be8f108)"><path fill="#4b0082" d="M 330.859375 103.015625 C 327.058594 107.769531 322.628906 111.121094 317.621094 113.023438 C 311.101562 115.300781 303.753906 115.046875 299.386719 110.554688 C 299.195312 110.296875 298.941406 110.046875 298.753906 109.855469 C 297.292969 110.929688 295.902344 111.753906 294.574219 112.453125 C 287.035156 116.1875 279.882812 114.609375 274.75 109.726562 C 272.027344 107.070312 270.0625 103.648438 269.050781 99.59375 C 268.480469 97.316406 268.164062 94.910156 268.164062 92.570312 C 268.164062 86.742188 269.496094 80.917969 272.027344 75.34375 C 274.75 69.449219 278.421875 64.636719 283.109375 61.03125 C 291.15625 54.824219 303.441406 52.855469 313.632812 56.089844 C 317.308594 57.230469 318.574219 60.203125 318.574219 62.421875 C 318.574219 62.675781 318.574219 62.988281 318.515625 63.242188 L 310.148438 105.421875 C 310.085938 105.617188 310.085938 105.800781 310.027344 105.996094 C 311.605469 105.867188 313.195312 105.546875 314.773438 105.042969 C 318.195312 103.773438 321.359375 101.242188 324.214844 97.695312 C 328.707031 92.121094 330.988281 85.476562 330.988281 77.871094 C 330.988281 74.203125 330.546875 70.84375 329.71875 67.929688 C 327.253906 59.570312 322.058594 53.429688 314.199219 49.691406 C 309.453125 47.410156 303.949219 46.269531 297.867188 46.269531 C 290.902344 46.269531 284.316406 48.109375 278.234375 51.71875 C 272.15625 55.390625 267.277344 60.332031 263.796875 66.476562 C 260.121094 72.9375 258.222656 80.15625 258.222656 88.070312 C 258.222656 92.121094 258.730469 95.855469 259.617188 99.214844 C 261.769531 107.136719 266.074219 113.402344 272.410156 117.773438 C 278.546875 122.015625 286.089844 124.167969 294.632812 124.167969 C 298.054688 124.167969 301.855469 123.726562 305.90625 122.839844 C 310.527344 121.761719 314.074219 120.175781 316.359375 118.089844 C 318.066406 116.507812 320.792969 116.636719 322.308594 118.402344 C 323.894531 120.113281 323.765625 122.773438 322.058594 124.359375 C 318.632812 127.460938 313.828125 129.742188 307.742188 131.132812 C 303.054688 132.148438 298.621094 132.65625 294.632812 132.65625 C 284.316406 132.65625 275.195312 129.996094 267.59375 124.742188 C 259.550781 119.167969 254.101562 111.375 251.441406 101.433594 C 250.371094 97.441406 249.796875 92.882812 249.796875 88.070312 C 249.796875 78.695312 252.015625 70.023438 256.382812 62.289062 C 260.628906 54.824219 266.515625 48.871094 273.863281 44.4375 C 281.269531 40.0625 289.382812 37.785156 297.867188 37.785156 C 305.214844 37.785156 311.925781 39.246094 317.8125 42.023438 C 327.945312 46.84375 334.726562 54.757812 337.828125 65.523438 C 338.964844 69.261719 339.472656 73.375 339.472656 77.871094 C 339.472656 87.4375 336.558594 95.855469 330.859375 103.015625 Z M 294.632812 13.132812 C 254.824219 13.132812 222.542969 45.410156 222.542969 85.222656 C 222.542969 108.375 233.511719 128.921875 250.476562 142.113281 C 245.609375 151.832031 238.035156 159.820312 226.242188 165.328125 C 234.335938 167.3125 243.03125 167.960938 251.828125 167.027344 C 263.300781 165.820312 273.875 162.011719 283.054688 156.292969 C 286.835938 156.90625 290.679688 157.308594 294.632812 157.308594 C 334.445312 157.308594 366.726562 125.035156 366.726562 85.222656 C 366.726562 45.410156 334.445312 13.132812 294.632812 13.132812 " fill-opacity="1" fill-rule="nonzero"/></g><path fill="#4b0082" d="M 288.242188 67.742188 C 284.695312 70.464844 281.839844 74.203125 279.753906 78.824219 C 277.730469 83.324219 276.648438 87.941406 276.648438 92.570312 C 276.648438 94.214844 276.84375 95.921875 277.28125 97.570312 C 277.914062 100.042969 279.054688 102.070312 280.640625 103.589844 C 283.234375 106.054688 286.339844 107.070312 290.773438 104.855469 C 292.546875 103.960938 294.574219 102.449219 296.914062 100.355469 C 297.929688 99.410156 299.386719 99.027344 300.714844 99.34375 C 301.40625 99.535156 301.980469 99.847656 302.488281 100.296875 L 309.773438 63.816406 C 307.679688 63.308594 305.527344 63.058594 303.441406 63.058594 C 297.867188 63.058594 292.226562 64.703125 288.242188 67.742188 " fill-opacity="1" fill-rule="nonzero"/><g clip-path="url(#0e95805d6b)"><path fill="#4b0082" d="M 122.332031 60.222656 L 126.171875 64.070312 C 132.539062 70.4375 142.960938 70.441406 149.328125 64.078125 L 168.914062 44.492188 C 169.398438 44.003906 169.632812 43.265625 169.730469 42.472656 C 169.980469 40.464844 169.183594 38.472656 167.757812 37.042969 L 157.898438 27.183594 C 156.425781 25.710938 154.925781 24.371094 153.40625 23.164062 C 147.886719 18.703125 142.054688 15.90625 136.078125 14.425781 C 108.433594 7.59375 77.414062 29.171875 56.28125 48.738281 C 53.855469 50.976562 51.550781 53.203125 49.402344 55.351562 C 40.054688 64.695312 30.984375 74.710938 23.769531 85.601562 C 15.992188 97.328125 10.363281 110.054688 8.859375 124.042969 C 8.238281 129.695312 8.304688 135.5625 9.164062 141.632812 C 10.15625 148.628906 16.171875 158.214844 21.523438 163.558594 L 31.382812 173.417969 C 32.808594 174.847656 34.808594 175.625 36.816406 175.386719 C 37.609375 175.285156 38.34375 175.058594 38.828125 174.574219 L 58.414062 154.988281 C 63.597656 149.808594 64.5625 141.933594 61.316406 135.761719 C 60.5625 134.339844 59.601562 133.015625 58.414062 131.828125 L 52.34375 125.753906 C 48.167969 121.589844 47.269531 114.0625 50.441406 109.089844 C 63.777344 88.164062 80.101562 71.535156 100.5 57.957031 C 107.359375 53.398438 116.515625 54.402344 122.332031 60.222656 " fill-opacity="1" fill-rule="nonzero"/></g></svg>