<svg xmlns="http://www.w3.org/2000/svg" xmlns:xlink="http://www.w3.org/1999/xlink" width="500" zoomAndPan="magnify" viewBox="0 0 375 374.999991" height="500" preserveAspectRatio="xMidYMid meet" version="1.0"><defs><filter x="0%" y="0%" width="100%" height="100%" id="c81050b7a2"><feColorMatrix values="0 0 0 0 1 0 0 0 0 1 0 0 0 0 1 0 0 0 1 0" color-interpolation-filters="sRGB"/></filter><clipPath id="7d3f046cfc"><path d="M 70.460938 185 L 298 185 L 298 316 L 70.460938 316 Z M 70.460938 185 " clip-rule="nonzero"/></clipPath><clipPath id="ad3d119e2e"><path d="M 156 311 L 219 311 L 219 351.152344 L 156 351.152344 Z M 156 311 " clip-rule="nonzero"/></clipPath><clipPath id="d97e7bb2d6"><path d="M 70.460938 84 L 304.460938 84 L 304.460938 319 L 70.460938 319 Z M 70.460938 84 " clip-rule="nonzero"/></clipPath><mask id="97a524c322"><g filter="url(#c81050b7a2)"><rect x="-37.5" width="450" fill="#000000" y="-37.499999" height="449.999989" fill-opacity="0.7"/></g></mask><clipPath id="ed0a509d0e"><path d="M 7 1 L 48 1 L 48 167.921875 L 7 167.921875 Z M 7 1 " clip-rule="nonzero"/></clipPath><clipPath id="5a4c3befe9"><path d="M 0.238281 117 L 46 117 L 46 165 L 0.238281 165 Z M 0.238281 117 " clip-rule="nonzero"/></clipPath><clipPath id="710b2e6b21"><rect x="0" width="48" y="0" height="168"/></clipPath><mask id="73e0b40111"><g filter="url(#c81050b7a2)"><rect x="-37.5" width="450" fill="#000000" y="-37.499999" height="449.999989" fill-opacity="0.7"/></g></mask><clipPath id="35a3354d83"><path d="M 0.359375 0.238281 L 41 0.238281 L 41 167.28125 L 0.359375 167.28125 Z M 0.359375 0.238281 " clip-rule="nonzero"/></clipPath><clipPath id="52bbf8bbed"><rect x="0" width="49" y="0" height="168"/></clipPath><clipPath id="ec0ddbe109"><path d="M 152 24.152344 L 222 24.152344 L 222 107 L 152 107 Z M 152 24.152344 " clip-rule="nonzero"/></clipPath></defs><path fill="#304c83" d="M 298.421875 201.800781 C 298.421875 203.617188 298.375 205.4375 298.289062 207.25 C 298.199219 209.066406 298.066406 210.878906 297.886719 212.691406 C 297.707031 214.5 297.488281 216.304688 297.21875 218.101562 C 296.953125 219.902344 296.644531 221.691406 296.289062 223.476562 C 295.933594 225.257812 295.535156 227.03125 295.09375 228.796875 C 294.65625 230.558594 294.171875 232.3125 293.644531 234.050781 C 293.117188 235.789062 292.546875 237.515625 291.933594 239.230469 C 291.324219 240.941406 290.667969 242.636719 289.976562 244.316406 C 289.28125 245.996094 288.542969 247.65625 287.769531 249.300781 C 286.992188 250.945312 286.175781 252.570312 285.320312 254.171875 C 284.464844 255.777344 283.566406 257.355469 282.632812 258.917969 C 281.699219 260.476562 280.730469 262.011719 279.722656 263.523438 C 278.710938 265.035156 277.667969 266.523438 276.585938 267.980469 C 275.503906 269.441406 274.386719 270.875 273.234375 272.28125 C 272.082031 273.6875 270.898438 275.0625 269.675781 276.410156 C 268.457031 277.757812 267.207031 279.074219 265.921875 280.359375 C 264.636719 281.644531 263.324219 282.898438 261.976562 284.121094 C 260.632812 285.339844 259.257812 286.527344 257.855469 287.679688 C 256.449219 288.835938 255.019531 289.953125 253.558594 291.035156 C 252.101562 292.121094 250.617188 293.164062 249.109375 294.175781 C 247.597656 295.1875 246.0625 296.160156 244.507812 297.09375 C 242.949219 298.027344 241.371094 298.925781 239.769531 299.78125 C 238.167969 300.636719 236.542969 301.457031 234.902344 302.234375 C 233.261719 303.011719 231.601562 303.746094 229.925781 304.441406 C 228.246094 305.136719 226.554688 305.792969 224.84375 306.40625 C 223.132812 307.019531 221.410156 307.589844 219.671875 308.117188 C 217.933594 308.644531 216.183594 309.128906 214.421875 309.570312 C 212.660156 310.011719 210.890625 310.410156 209.109375 310.765625 C 207.328125 311.121094 205.539062 311.429688 203.742188 311.699219 C 201.945312 311.964844 200.144531 312.1875 198.339844 312.363281 C 196.53125 312.542969 194.71875 312.675781 192.90625 312.765625 C 191.09375 312.855469 189.277344 312.898438 187.460938 312.898438 C 185.644531 312.898438 183.832031 312.855469 182.019531 312.765625 C 180.203125 312.675781 178.394531 312.542969 176.585938 312.363281 C 174.777344 312.1875 172.976562 311.964844 171.179688 311.699219 C 169.386719 311.429688 167.597656 311.121094 165.816406 310.765625 C 164.035156 310.410156 162.261719 310.011719 160.5 309.570312 C 158.738281 309.128906 156.992188 308.644531 155.253906 308.117188 C 153.515625 307.589844 151.792969 307.019531 150.082031 306.40625 C 148.371094 305.792969 146.679688 305.136719 145 304.441406 C 143.324219 303.746094 141.664062 303.011719 140.019531 302.234375 C 138.378906 301.457031 136.757812 300.636719 135.15625 299.78125 C 133.554688 298.925781 131.976562 298.027344 130.417969 297.09375 C 128.859375 296.160156 127.328125 295.1875 125.816406 294.175781 C 124.308594 293.164062 122.824219 292.121094 121.363281 291.035156 C 119.90625 289.953125 118.472656 288.835938 117.070312 287.679688 C 115.667969 286.527344 114.292969 285.339844 112.945312 284.121094 C 111.601562 282.898438 110.285156 281.644531 109.003906 280.359375 C 107.71875 279.074219 106.464844 277.757812 105.246094 276.410156 C 104.027344 275.0625 102.84375 273.6875 101.691406 272.28125 C 100.539062 270.875 99.421875 269.441406 98.339844 267.980469 C 97.257812 266.523438 96.210938 265.035156 95.203125 263.523438 C 94.195312 262.011719 93.222656 260.476562 92.289062 258.917969 C 91.355469 257.355469 90.460938 255.777344 89.605469 254.171875 C 88.75 252.570312 87.933594 250.945312 87.15625 249.300781 C 86.378906 247.65625 85.644531 245.996094 84.949219 244.316406 C 84.253906 242.636719 83.601562 240.941406 82.988281 239.230469 C 82.378906 237.515625 81.808594 235.789062 81.28125 234.050781 C 80.753906 232.3125 80.269531 230.558594 79.828125 228.796875 C 79.386719 227.03125 78.988281 225.257812 78.636719 223.476562 C 78.28125 221.691406 77.972656 219.902344 77.703125 218.101562 C 77.4375 216.304688 77.214844 214.5 77.039062 212.691406 C 76.859375 210.878906 76.726562 209.066406 76.636719 207.25 C 76.546875 205.4375 76.503906 203.617188 76.503906 201.800781 C 76.503906 199.980469 76.546875 198.164062 76.636719 196.347656 C 76.726562 194.53125 76.859375 192.71875 77.039062 190.910156 C 77.214844 189.101562 77.4375 187.296875 77.703125 185.5 C 77.972656 183.699219 78.28125 181.910156 78.636719 180.125 C 78.988281 178.34375 79.386719 176.570312 79.828125 174.804688 C 80.269531 173.042969 80.753906 171.289062 81.28125 169.550781 C 81.808594 167.808594 82.378906 166.082031 82.988281 164.371094 C 83.601562 162.660156 84.253906 160.964844 84.949219 159.285156 C 85.644531 157.605469 86.378906 155.941406 87.15625 154.300781 C 87.933594 152.65625 88.75 151.03125 89.605469 149.429688 C 90.460938 147.824219 91.355469 146.242188 92.289062 144.683594 C 93.222656 143.125 94.195312 141.589844 95.203125 140.078125 C 96.210938 138.566406 97.257812 137.078125 98.339844 135.617188 C 99.421875 134.15625 100.539062 132.726562 101.691406 131.320312 C 102.84375 129.914062 104.027344 128.539062 105.246094 127.191406 C 106.464844 125.84375 107.71875 124.527344 109.003906 123.242188 C 110.285156 121.957031 111.601562 120.703125 112.945312 119.480469 C 114.292969 118.261719 115.667969 117.074219 117.070312 115.917969 C 118.472656 114.765625 119.90625 113.648438 121.363281 112.5625 C 122.824219 111.480469 124.308594 110.433594 125.816406 109.425781 C 127.328125 108.414062 128.859375 107.441406 130.417969 106.507812 C 131.976562 105.570312 133.554688 104.675781 135.15625 103.820312 C 136.757812 102.960938 138.378906 102.144531 140.019531 101.367188 C 141.664062 100.589844 143.324219 99.851562 145 99.15625 C 146.679688 98.460938 148.371094 97.808594 150.082031 97.195312 C 151.792969 96.582031 153.515625 96.011719 155.253906 95.484375 C 156.992188 94.957031 158.738281 94.472656 160.5 94.03125 C 162.261719 93.589844 164.035156 93.191406 165.816406 92.835938 C 167.597656 92.480469 169.386719 92.171875 171.179688 91.902344 C 172.976562 91.636719 174.777344 91.414062 176.585938 91.234375 C 178.394531 91.058594 180.203125 90.921875 182.019531 90.835938 C 183.832031 90.746094 185.644531 90.699219 187.460938 90.699219 C 189.277344 90.699219 191.09375 90.746094 192.90625 90.835938 C 194.71875 90.921875 196.53125 91.058594 198.339844 91.234375 C 200.144531 91.414062 201.945312 91.636719 203.742188 91.902344 C 205.539062 92.171875 207.328125 92.480469 209.109375 92.835938 C 210.890625 93.191406 212.660156 93.589844 214.421875 94.03125 C 216.183594 94.472656 217.933594 94.957031 219.671875 95.484375 C 221.410156 96.011719 223.132812 96.582031 224.84375 97.195312 C 226.554688 97.808594 228.246094 98.460938 229.925781 99.15625 C 231.601562 99.851562 233.261719 100.589844 234.902344 101.367188 C 236.542969 102.144531 238.167969 102.960938 239.769531 103.820312 C 241.371094 104.675781 242.949219 105.570312 244.507812 106.507812 C 246.0625 107.441406 247.597656 108.414062 249.109375 109.425781 C 250.617188 110.433594 252.101562 111.480469 253.558594 112.5625 C 255.019531 113.648438 256.449219 114.765625 257.855469 115.917969 C 259.257812 117.074219 260.632812 118.261719 261.976562 119.480469 C 263.324219 120.703125 264.636719 121.957031 265.921875 123.242188 C 267.207031 124.527344 268.457031 125.84375 269.675781 127.191406 C 270.898438 128.539062 272.082031 129.914062 273.234375 131.320312 C 274.386719 132.726562 275.503906 134.15625 276.585938 135.617188 C 277.667969 137.078125 278.710938 138.566406 279.722656 140.078125 C 280.730469 141.589844 281.699219 143.125 282.632812 144.683594 C 283.566406 146.242188 284.464844 147.824219 285.320312 149.429688 C 286.175781 151.03125 286.992188 152.65625 287.769531 154.300781 C 288.542969 155.941406 289.28125 157.605469 289.976562 159.285156 C 290.667969 160.964844 291.324219 162.660156 291.933594 164.371094 C 292.546875 166.082031 293.117188 167.808594 293.644531 169.550781 C 294.171875 171.289062 294.65625 173.042969 295.09375 174.804688 C 295.535156 176.570312 295.933594 178.34375 296.289062 180.125 C 296.644531 181.910156 296.953125 183.699219 297.21875 185.5 C 297.488281 187.296875 297.707031 189.101562 297.886719 190.910156 C 298.066406 192.71875 298.199219 194.53125 298.289062 196.347656 C 298.375 198.164062 298.421875 199.980469 298.421875 201.800781 Z M 298.421875 201.800781 " fill-opacity="1" fill-rule="nonzero"/><path fill="#ffffff" d="M 284.015625 201.800781 C 284.015625 203.382812 283.976562 204.964844 283.898438 206.542969 C 283.824219 208.125 283.707031 209.703125 283.550781 211.277344 C 283.394531 212.851562 283.203125 214.421875 282.972656 215.984375 C 282.738281 217.550781 282.46875 219.109375 282.160156 220.660156 C 281.851562 222.210938 281.507812 223.757812 281.121094 225.289062 C 280.738281 226.824219 280.316406 228.351562 279.859375 229.863281 C 279.398438 231.378906 278.90625 232.878906 278.371094 234.371094 C 277.839844 235.859375 277.269531 237.335938 276.667969 238.796875 C 276.0625 240.257812 275.421875 241.703125 274.746094 243.132812 C 274.070312 244.566406 273.359375 245.976562 272.613281 247.375 C 271.871094 248.769531 271.089844 250.144531 270.277344 251.5 C 269.46875 252.859375 268.621094 254.195312 267.742188 255.511719 C 266.867188 256.828125 265.957031 258.121094 265.015625 259.390625 C 264.074219 260.660156 263.101562 261.90625 262.097656 263.132812 C 261.097656 264.355469 260.066406 265.550781 259.003906 266.722656 C 257.941406 267.898438 256.851562 269.042969 255.734375 270.160156 C 254.617188 271.28125 253.476562 272.371094 252.304688 273.433594 C 251.132812 274.496094 249.9375 275.527344 248.714844 276.53125 C 247.492188 277.535156 246.25 278.507812 244.980469 279.453125 C 243.710938 280.394531 242.417969 281.304688 241.105469 282.183594 C 239.789062 283.0625 238.457031 283.910156 237.101562 284.722656 C 235.746094 285.535156 234.371094 286.316406 232.976562 287.0625 C 231.582031 287.808594 230.171875 288.519531 228.746094 289.195312 C 227.316406 289.871094 225.871094 290.511719 224.410156 291.117188 C 222.953125 291.722656 221.476562 292.292969 219.992188 292.824219 C 218.503906 293.359375 217.003906 293.855469 215.492188 294.3125 C 213.976562 294.773438 212.457031 295.195312 210.921875 295.578125 C 209.390625 295.964844 207.847656 296.308594 206.300781 296.617188 C 204.75 296.925781 203.191406 297.199219 201.628906 297.429688 C 200.066406 297.664062 198.5 297.855469 196.925781 298.011719 C 195.355469 298.167969 193.777344 298.28125 192.199219 298.359375 C 190.621094 298.4375 189.042969 298.476562 187.460938 298.476562 C 185.882812 298.476562 184.304688 298.4375 182.722656 298.359375 C 181.144531 298.28125 179.570312 298.167969 178 298.011719 C 176.425781 297.855469 174.859375 297.664062 173.292969 297.429688 C 171.730469 297.199219 170.175781 296.929688 168.625 296.617188 C 167.074219 296.308594 165.535156 295.964844 164 295.578125 C 162.46875 295.195312 160.945312 294.773438 159.433594 294.3125 C 157.921875 293.855469 156.421875 293.359375 154.933594 292.824219 C 153.445312 292.292969 151.972656 291.722656 150.511719 291.117188 C 149.054688 290.511719 147.609375 289.871094 146.179688 289.195312 C 144.75 288.519531 143.339844 287.808594 141.945312 287.0625 C 140.554688 286.316406 139.179688 285.535156 137.824219 284.722656 C 136.46875 283.910156 135.132812 283.0625 133.820312 282.183594 C 132.507812 281.304688 131.214844 280.394531 129.945312 279.453125 C 128.675781 278.507812 127.429688 277.535156 126.210938 276.53125 C 124.988281 275.527344 123.792969 274.496094 122.621094 273.433594 C 121.449219 272.371094 120.304688 271.28125 119.1875 270.160156 C 118.070312 269.042969 116.980469 267.898438 115.921875 266.722656 C 114.859375 265.550781 113.828125 264.355469 112.824219 263.132812 C 111.824219 261.90625 110.851562 260.660156 109.910156 259.390625 C 108.96875 258.121094 108.058594 256.828125 107.179688 255.511719 C 106.304688 254.195312 105.457031 252.859375 104.644531 251.5 C 103.832031 250.144531 103.054688 248.769531 102.308594 247.375 C 101.5625 245.976562 100.855469 244.566406 100.179688 243.132812 C 99.503906 241.703125 98.863281 240.257812 98.257812 238.796875 C 97.652344 237.335938 97.085938 235.859375 96.550781 234.371094 C 96.019531 232.878906 95.523438 231.378906 95.066406 229.863281 C 94.605469 228.351562 94.1875 226.824219 93.800781 225.289062 C 93.417969 223.757812 93.070312 222.210938 92.761719 220.660156 C 92.457031 219.109375 92.183594 217.550781 91.953125 215.984375 C 91.722656 214.421875 91.527344 212.851562 91.375 211.277344 C 91.21875 209.703125 91.101562 208.125 91.023438 206.542969 C 90.945312 204.964844 90.910156 203.382812 90.910156 201.800781 C 90.910156 200.21875 90.945312 198.636719 91.023438 197.054688 C 91.101562 195.476562 91.21875 193.898438 91.375 192.324219 C 91.527344 190.75 91.722656 189.179688 91.953125 187.613281 C 92.183594 186.050781 92.457031 184.492188 92.761719 182.941406 C 93.070312 181.386719 93.417969 179.84375 93.800781 178.308594 C 94.1875 176.773438 94.605469 175.25 95.066406 173.738281 C 95.523438 172.222656 96.019531 170.71875 96.550781 169.230469 C 97.085938 167.742188 97.652344 166.265625 98.257812 164.804688 C 98.863281 163.34375 99.503906 161.894531 100.179688 160.464844 C 100.855469 159.035156 101.5625 157.621094 102.308594 156.226562 C 103.054688 154.832031 103.832031 153.457031 104.644531 152.097656 C 105.457031 150.742188 106.300781 149.40625 107.179688 148.089844 C 108.058594 146.773438 108.96875 145.480469 109.910156 144.210938 C 110.851562 142.9375 111.824219 141.691406 112.824219 140.46875 C 113.828125 139.246094 114.859375 138.046875 115.921875 136.875 C 116.980469 135.703125 118.070312 134.558594 119.1875 133.441406 C 120.304688 132.320312 121.449219 131.230469 122.621094 130.167969 C 123.792969 129.105469 124.988281 128.070312 126.210938 127.066406 C 127.429688 126.066406 128.675781 125.089844 129.945312 124.148438 C 131.214844 123.207031 132.507812 122.296875 133.820312 121.417969 C 135.132812 120.539062 136.46875 119.691406 137.824219 118.878906 C 139.179688 118.066406 140.554688 117.285156 141.945312 116.539062 C 143.339844 115.792969 144.75 115.082031 146.179688 114.40625 C 147.609375 113.730469 149.054688 113.089844 150.511719 112.484375 C 151.972656 111.878906 153.445312 111.308594 154.933594 110.773438 C 156.421875 110.242188 157.921875 109.746094 159.433594 109.285156 C 160.945312 108.828125 162.46875 108.40625 164 108.019531 C 165.535156 107.636719 167.074219 107.289062 168.625 106.980469 C 170.175781 106.671875 171.730469 106.402344 173.292969 106.171875 C 174.859375 105.9375 176.425781 105.746094 178 105.589844 C 179.570312 105.433594 181.144531 105.316406 182.722656 105.242188 C 184.304688 105.164062 185.882812 105.125 187.460938 105.125 C 189.042969 105.125 190.621094 105.164062 192.199219 105.242188 C 193.777344 105.316406 195.355469 105.433594 196.925781 105.589844 C 198.5 105.746094 200.066406 105.9375 201.628906 106.171875 C 203.191406 106.402344 204.75 106.671875 206.300781 106.980469 C 207.847656 107.289062 209.390625 107.636719 210.921875 108.019531 C 212.457031 108.40625 213.976562 108.828125 215.492188 109.285156 C 217.003906 109.746094 218.503906 110.242188 219.992188 110.773438 C 221.476562 111.308594 222.953125 111.878906 224.410156 112.484375 C 225.871094 113.089844 227.316406 113.730469 228.746094 114.40625 C 230.171875 115.082031 231.582031 115.792969 232.976562 116.539062 C 234.371094 117.285156 235.746094 118.066406 237.101562 118.878906 C 238.457031 119.691406 239.789062 120.539062 241.105469 121.417969 C 242.417969 122.296875 243.710938 123.207031 244.980469 124.148438 C 246.25 125.089844 247.492188 126.066406 248.714844 127.066406 C 249.9375 128.070312 251.132812 129.105469 252.304688 130.167969 C 253.476562 131.230469 254.617188 132.320312 255.734375 133.441406 C 256.851562 134.558594 257.941406 135.703125 259.003906 136.875 C 260.066406 138.046875 261.097656 139.246094 262.097656 140.46875 C 263.101562 141.691406 264.074219 142.9375 265.015625 144.210938 C 265.957031 145.480469 266.867188 146.773438 267.742188 148.089844 C 268.621094 149.40625 269.46875 150.742188 270.277344 152.097656 C 271.089844 153.457031 271.871094 154.832031 272.613281 156.226562 C 273.359375 157.621094 274.070312 159.035156 274.746094 160.464844 C 275.421875 161.894531 276.0625 163.34375 276.667969 164.804688 C 277.269531 166.265625 277.839844 167.742188 278.371094 169.230469 C 278.90625 170.71875 279.398438 172.222656 279.859375 173.738281 C 280.316406 175.25 280.738281 176.773438 281.121094 178.308594 C 281.507812 179.84375 281.851562 181.386719 282.160156 182.941406 C 282.46875 184.492188 282.738281 186.050781 282.972656 187.613281 C 283.203125 189.179688 283.394531 190.75 283.550781 192.324219 C 283.707031 193.898438 283.824219 195.476562 283.898438 197.054688 C 283.976562 198.636719 284.015625 200.21875 284.015625 201.800781 Z M 284.015625 201.800781 " fill-opacity="0.19" fill-rule="nonzero"/><path fill="#ffffff" d="M 262.160156 143.328125 L 255.003906 144.574219 C 253.597656 144.820312 252.496094 145.921875 252.25 147.332031 L 251.003906 154.5 L 249.761719 147.332031 C 249.511719 145.921875 248.414062 144.820312 247.003906 144.574219 L 239.847656 143.328125 L 247.003906 142.082031 C 248.414062 141.832031 249.511719 140.730469 249.761719 139.324219 L 251.003906 132.15625 L 252.25 139.324219 C 252.496094 140.730469 253.597656 141.832031 255.003906 142.082031 Z M 262.160156 143.328125 " fill-opacity="1" fill-rule="nonzero"/><path fill="#ffffff" d="M 143.042969 128.695312 L 135.882812 129.941406 C 134.476562 130.191406 133.375 131.289062 133.128906 132.699219 L 131.882812 139.867188 L 130.640625 132.699219 C 130.394531 131.289062 129.292969 130.191406 127.886719 129.941406 L 120.726562 128.695312 L 127.886719 127.449219 C 129.292969 127.203125 130.394531 126.101562 130.640625 124.691406 L 131.882812 117.523438 L 133.128906 124.691406 C 133.375 126.101562 134.476562 127.203125 135.882812 127.449219 Z M 143.042969 128.695312 " fill-opacity="1" fill-rule="nonzero"/><path fill="#ffffff" d="M 107.976562 157.246094 L 100.820312 158.492188 C 99.414062 158.738281 98.3125 159.839844 98.066406 161.25 L 96.820312 168.414062 L 95.574219 161.25 C 95.328125 159.839844 94.230469 158.738281 92.820312 158.492188 L 85.664062 157.246094 L 92.820312 155.996094 C 94.230469 155.75 95.328125 154.648438 95.574219 153.238281 L 96.820312 146.074219 L 98.066406 153.238281 C 98.3125 154.648438 99.414062 155.75 100.820312 155.996094 Z M 107.976562 157.246094 " fill-opacity="1" fill-rule="nonzero"/><path fill="#ffffff" d="M 251 117.523438 L 241.941406 119.101562 C 240.164062 119.414062 238.765625 120.8125 238.457031 122.589844 L 236.878906 131.660156 L 235.304688 122.589844 C 234.996094 120.8125 233.597656 119.414062 231.820312 119.101562 L 222.761719 117.523438 L 231.820312 115.945312 C 233.597656 115.636719 234.996094 114.238281 235.304688 112.457031 L 236.878906 103.386719 L 238.457031 112.457031 C 238.765625 114.238281 240.164062 115.636719 241.941406 115.945312 Z M 251 117.523438 " fill-opacity="1" fill-rule="nonzero"/><path fill="#ffffff" d="M 148.15625 166.4375 L 135.789062 168.59375 C 133.359375 169.015625 131.457031 170.921875 131.03125 173.359375 L 128.878906 185.742188 L 126.722656 173.359375 C 126.304688 170.925781 124.402344 169.023438 121.96875 168.59375 L 109.597656 166.4375 L 121.96875 164.28125 C 124.394531 163.859375 126.296875 161.957031 126.722656 159.519531 L 128.878906 147.136719 L 131.03125 159.519531 C 131.453125 161.953125 133.355469 163.855469 135.789062 164.28125 Z M 148.15625 166.4375 " fill-opacity="1" fill-rule="nonzero"/><path fill="#ffffff" d="M 260.636719 183.480469 L 253.011719 184.804688 C 251.515625 185.0625 250.34375 186.238281 250.085938 187.738281 L 248.761719 195.371094 L 247.4375 187.738281 C 247.179688 186.238281 246.007812 185.0625 244.507812 184.804688 L 236.886719 183.480469 L 244.507812 182.152344 C 246.007812 181.894531 247.179688 180.722656 247.4375 179.222656 L 248.761719 171.589844 L 250.085938 179.222656 C 250.34375 180.722656 251.515625 181.894531 253.011719 182.152344 Z M 260.636719 183.480469 " fill-opacity="1" fill-rule="nonzero"/><g clip-path="url(#7d3f046cfc)"><path fill="#ffffff" d="M 70.710938 199.773438 C 93.703125 195.570312 118.742188 207.0625 130.570312 227.242188 C 140.691406 224.292969 151.894531 227.140625 160.617188 233.0625 C 169.339844 238.980469 175.839844 247.6875 180.984375 256.898438 C 192.574219 240.347656 215.582031 232.863281 234.675781 239.4375 C 232.308594 232.066406 234.464844 223.441406 240.015625 218.058594 C 245.570312 212.679688 254.253906 210.804688 261.527344 213.414062 C 262.121094 205.148438 266.308594 197.207031 272.785156 192.042969 C 279.265625 186.886719 287.9375 184.589844 296.117188 185.878906 C 302.207031 227.710938 282.753906 272.242188 247.929688 296.152344 C 213.113281 320.0625 164.617188 322.199219 127.835938 301.441406 C 91.046875 280.679688 70.996094 238.179688 70.710938 199.773438 Z M 70.710938 199.773438 " fill-opacity="1" fill-rule="nonzero"/></g><path fill="#304c83" d="M 79.015625 231.195312 C 87.609375 226.179688 98.417969 225.140625 107.816406 228.421875 C 117.210938 231.707031 125.019531 239.257812 128.632812 248.535156 C 146.671875 244.828125 166.59375 255.730469 173.21875 272.933594 C 190.066406 254.804688 219.144531 249.46875 241.316406 260.4375 C 240.796875 252.304688 244.109375 244.003906 250.085938 238.46875 C 256.066406 232.9375 264.585938 230.28125 272.640625 231.4375 C 275.578125 219.15625 287.832031 209.792969 300.441406 210.203125 C 296.148438 231.988281 291.527344 254.554688 278.367188 272.425781 C 261.242188 295.683594 232.324219 307.195312 204.015625 312.796875 C 186.632812 316.242188 168.3125 317.835938 151.421875 312.449219 C 137.929688 308.148438 126.140625 299.628906 115.746094 290 C 98.453125 273.984375 83.976562 253.667969 79.015625 231.191406 Z M 79.015625 231.195312 " fill-opacity="1" fill-rule="nonzero"/><path fill="#171744" d="M 87.078125 253.960938 C 92.351562 249.578125 100.625 249.328125 106.160156 253.375 C 110.78125 248.316406 118.097656 245.871094 124.832031 247.140625 C 131.570312 248.410156 137.492188 253.347656 139.960938 259.75 C 143.40625 255.375 150.621094 255.910156 154.945312 259.414062 C 159.269531 262.917969 161.382812 268.40625 163.191406 273.675781 C 168.414062 269.320312 175.816406 267.730469 182.363281 269.5625 C 188.910156 271.394531 194.417969 276.59375 196.628906 283.03125 C 204.269531 269.339844 223.210938 263.375 237.300781 270.226562 C 238.535156 265.464844 242.050781 261.351562 246.5625 259.402344 C 251.074219 257.453125 256.480469 257.710938 260.78125 260.082031 C 265.335938 252.101562 276.28125 248.523438 284.667969 252.269531 C 274.761719 279.582031 252.503906 302.132812 225.335938 312.359375 C 198.171875 322.589844 166.589844 320.320312 141.164062 306.3125 C 119.421875 294.332031 102.941406 274.875 87.078125 253.964844 Z M 87.078125 253.960938 " fill-opacity="0.66" fill-rule="nonzero"/><path fill="#d42328" d="M 132.433594 302.59375 C 132.484375 298.671875 135.125 294.910156 138.796875 293.539062 C 142.464844 292.167969 146.921875 293.28125 149.527344 296.214844 C 150.15625 293.058594 152.628906 290.34375 155.714844 289.433594 C 158.796875 288.523438 162.347656 289.457031 164.585938 291.765625 C 165.667969 288.839844 168.613281 286.703125 171.722656 286.59375 C 174.828125 286.480469 177.933594 288.382812 179.226562 291.21875 C 185.414062 285.453125 196.222656 285.714844 202.128906 291.769531 C 202.703125 288.832031 205.78125 286.625 208.746094 287.019531 C 211.707031 287.417969 214.09375 290.359375 213.871094 293.34375 C 214.652344 290.984375 217.128906 289.3125 219.605469 289.460938 C 222.078125 289.613281 224.332031 291.589844 224.816406 294.023438 C 227.980469 291.445312 232.589844 290.78125 236.347656 292.367188 C 240.105469 293.957031 242.847656 297.722656 243.214844 301.789062 C 225.910156 310.761719 206.769531 316.667969 187.289062 316.933594 C 167.800781 317.195312 147.960938 311.539062 132.441406 302.589844 Z M 132.433594 302.59375 " fill-opacity="1" fill-rule="nonzero"/><g clip-path="url(#ad3d119e2e)"><path fill="#171744" d="M 156.746094 327.402344 L 156.746094 311.046875 L 218.957031 311.046875 L 218.957031 327.402344 C 218.957031 340.5 202.121094 340.242188 187.847656 351.113281 C 161.523438 332.339844 156.738281 340.5 156.738281 327.402344 Z M 156.746094 327.402344 " fill-opacity="1" fill-rule="nonzero"/></g><g clip-path="url(#d97e7bb2d6)"><path fill="#171744" d="M 187.460938 318.949219 C 171.667969 318.949219 156.347656 315.847656 141.917969 309.742188 C 127.984375 303.839844 115.476562 295.398438 104.730469 284.636719 C 93.988281 273.882812 85.550781 261.351562 79.65625 247.402344 C 73.558594 232.953125 70.460938 217.617188 70.460938 201.800781 C 70.460938 185.984375 73.558594 170.644531 79.65625 156.199219 C 85.550781 142.25 93.980469 129.722656 104.730469 118.960938 C 115.472656 108.207031 127.984375 99.761719 141.917969 93.855469 C 156.347656 87.746094 171.671875 84.652344 187.460938 84.652344 C 203.253906 84.652344 218.578125 87.753906 233.003906 93.855469 C 246.9375 99.761719 259.445312 108.203125 270.195312 118.960938 C 280.9375 129.71875 289.375 142.25 295.269531 156.199219 C 301.371094 170.644531 304.460938 185.988281 304.460938 201.800781 C 304.460938 217.609375 301.367188 232.953125 295.269531 247.402344 C 289.375 261.351562 280.941406 273.875 270.195312 284.636719 C 259.453125 295.394531 246.9375 303.839844 233.003906 309.742188 C 218.578125 315.855469 203.253906 318.949219 187.460938 318.949219 Z M 187.460938 92.117188 C 172.671875 92.117188 158.328125 95.015625 144.820312 100.730469 C 131.777344 106.257812 120.058594 114.167969 109.996094 124.242188 C 99.933594 134.316406 92.035156 146.046875 86.515625 159.109375 C 80.804688 172.628906 77.910156 186.996094 77.910156 201.804688 C 77.910156 216.617188 80.804688 230.976562 86.515625 244.503906 C 92.035156 257.5625 99.933594 269.292969 109.996094 279.371094 C 120.058594 289.445312 131.773438 297.351562 144.820312 302.878906 C 158.320312 308.597656 172.671875 311.496094 187.460938 311.496094 C 202.253906 311.496094 216.597656 308.597656 230.105469 302.878906 C 243.144531 297.351562 254.863281 289.445312 264.925781 279.371094 C 274.992188 269.292969 282.886719 257.566406 288.410156 244.503906 C 294.117188 230.984375 297.011719 216.617188 297.011719 201.804688 C 297.011719 186.996094 294.117188 172.632812 288.410156 159.109375 C 282.886719 146.050781 274.992188 134.316406 264.925781 124.242188 C 254.863281 114.167969 243.152344 106.257812 230.105469 100.730469 C 216.601562 95.015625 202.253906 92.117188 187.460938 92.117188 Z M 187.460938 92.117188 " fill-opacity="1" fill-rule="nonzero"/></g><path fill="#d42328" d="M 156.03125 100.945312 C 176.160156 95.484375 197.6875 95.3125 217.898438 100.445312 C 218.113281 72.847656 205.996094 45.382812 185.476562 26.949219 C 179.933594 29.351562 176.164062 34.554688 173.070312 39.738281 C 162.449219 57.523438 156.441406 78.042969 156.03125 100.941406 Z M 156.03125 100.945312 " fill-opacity="1" fill-rule="nonzero"/><path fill="#d42328" d="M 218.8125 265.132812 C 232.78125 280.820312 248.09375 295.304688 264.527344 308.371094 C 263.484375 291.007812 262.441406 273.640625 261.394531 256.273438 C 251.515625 241.3125 241.644531 226.34375 231.765625 211.382812 C 232.808594 191.402344 232.445312 171.359375 230.664062 151.4375 C 226.6875 145.511719 222.710938 139.582031 218.734375 133.65625 C 218.230469 177.578125 217.726562 221.492188 218.8125 265.136719 Z M 218.8125 265.132812 " fill-opacity="1" fill-rule="nonzero"/><path fill="#d42328" d="M 109.605469 310.625 C 126.410156 295.230469 143.214844 279.835938 160.019531 264.445312 C 160.019531 266.621094 160.015625 268.800781 160.011719 270.972656 C 161.214844 224.703125 159.835938 178.367188 155.875 132.257812 C 151.949219 138.851562 148.023438 145.445312 144.097656 152.042969 C 144.664062 151.21875 145.230469 150.394531 145.796875 149.566406 C 145.339844 151.554688 144.886719 153.542969 144.433594 155.527344 C 143.1875 176.457031 141.949219 197.386719 140.703125 218.316406 C 140.925781 217.039062 141.152344 215.761719 141.375 214.480469 C 131.390625 229.910156 121.402344 245.34375 111.417969 260.773438 C 112.023438 260.007812 112.621094 259.25 113.226562 258.488281 C 112.089844 275.332031 110.957031 292.179688 109.609375 310.625 Z M 109.605469 310.625 " fill-opacity="1" fill-rule="nonzero"/><path fill="#fcb23b" d="M 165.320312 98.953125 C 168.519531 80.417969 174.5625 62.371094 183.148438 45.640625 C 184.382812 43.234375 187.808594 43.230469 189.042969 45.640625 C 197.3125 61.726562 203.242188 79.023438 206.5625 96.8125 C 192.484375 94.535156 177.921875 95.296875 165.320312 98.957031 Z M 165.320312 98.953125 " fill-opacity="0.74" fill-rule="nonzero"/><g mask="url(#97a524c322)"><g transform="matrix(1, 0, 0, 1, 216, 140)"><g clip-path="url(#710b2e6b21)"><g clip-path="url(#ed0a509d0e)"><path fill="#fcb23b" d="M 47.609375 167.765625 C 44.6875 150.921875 40.960938 134.214844 35.648438 118.066406 C 26.597656 103.546875 17.160156 89.269531 7.136719 73.910156 C 7.574219 49.746094 8.007812 25.585938 8.445312 1.421875 C 13.101562 6.707031 13.808594 14.296875 14.296875 21.332031 C 15.46875 38.335938 16.640625 55.335938 17.8125 72.335938 C 17.414062 71.386719 17.015625 70.445312 16.617188 69.496094 C 16.890625 70.5625 17.167969 71.628906 17.441406 72.695312 L 15.628906 70.292969 C 21.785156 80.175781 27.941406 90.066406 34.097656 99.953125 C 37.972656 106.183594 41.894531 112.496094 44.046875 119.507812 C 46.09375 126.175781 46.46875 133.230469 46.835938 140.195312 C 47.316406 149.460938 47.800781 158.734375 47.613281 167.773438 Z M 47.609375 167.765625 " fill-opacity="0.39" fill-rule="nonzero"/></g><g clip-path="url(#5a4c3befe9)"><path fill="#fcb23b" d="M 0.84375 117.335938 C 8.753906 117.410156 16.664062 117.480469 25.289062 117.964844 C 29.480469 118.199219 33.058594 121.078125 34.175781 125.132812 L 45.113281 164.925781 C 29.574219 153.816406 15.40625 140.785156 3.03125 126.226562 C 2.144531 125.1875 1.253906 124.105469 0.816406 122.804688 C 0.195312 120.949219 0.601562 118.902344 0.839844 117.335938 Z M 0.84375 117.335938 " fill-opacity="0.39" fill-rule="nonzero"/></g></g></g></g><g mask="url(#73e0b40111)"><g transform="matrix(1, 0, 0, 1, 111, 144)"><g clip-path="url(#52bbf8bbed)"><g clip-path="url(#35a3354d83)"><path fill="#fcb23b" d="M 0.484375 167.046875 C 3.40625 150.203125 7.128906 133.492188 12.441406 117.347656 C 21.496094 102.828125 30.929688 88.550781 40.953125 73.1875 C 40.515625 49.027344 40.085938 24.863281 39.648438 0.703125 C 34.992188 5.988281 34.285156 13.574219 33.796875 20.613281 C 32.625 37.613281 31.453125 54.617188 30.28125 71.617188 C 30.679688 70.667969 31.078125 69.722656 31.476562 68.773438 C 31.199219 69.84375 30.925781 70.910156 30.652344 71.976562 L 32.460938 69.574219 C 26.308594 79.457031 20.148438 89.347656 13.996094 99.234375 C 10.121094 105.460938 6.199219 111.773438 4.046875 118.789062 C 1.996094 125.457031 1.621094 132.511719 1.257812 139.476562 C 0.773438 148.742188 0.292969 158.015625 0.476562 167.050781 Z M 0.484375 167.046875 " fill-opacity="0.39" fill-rule="nonzero"/></g><path fill="#fcb23b" d="M 47.25 116.609375 C 39.339844 116.683594 31.429688 116.757812 22.804688 117.238281 C 18.613281 117.476562 15.035156 120.351562 13.917969 124.40625 L 2.980469 164.199219 C 18.519531 153.089844 32.6875 140.058594 45.0625 125.5 C 45.949219 124.460938 46.839844 123.378906 47.277344 122.082031 C 47.898438 120.222656 47.488281 118.175781 47.253906 116.609375 Z M 47.25 116.609375 " fill-opacity="0.39" fill-rule="nonzero"/></g></g></g><path fill="#ffffff" d="M 244.507812 265.816406 C 244.507812 266.210938 244.433594 266.589844 244.285156 266.953125 C 244.132812 267.316406 243.917969 267.636719 243.640625 267.914062 C 243.363281 268.191406 243.042969 268.40625 242.679688 268.554688 C 242.316406 268.707031 241.941406 268.78125 241.546875 268.78125 C 241.15625 268.78125 240.777344 268.707031 240.414062 268.554688 C 240.050781 268.40625 239.730469 268.191406 239.453125 267.914062 C 239.175781 267.636719 238.960938 267.316406 238.8125 266.953125 C 238.660156 266.589844 238.585938 266.210938 238.585938 265.816406 C 238.585938 265.421875 238.660156 265.046875 238.8125 264.683594 C 238.960938 264.320312 239.175781 263.996094 239.453125 263.71875 C 239.730469 263.441406 240.050781 263.226562 240.414062 263.078125 C 240.777344 262.925781 241.15625 262.851562 241.546875 262.851562 C 241.941406 262.851562 242.316406 262.925781 242.679688 263.078125 C 243.042969 263.226562 243.363281 263.441406 243.640625 263.71875 C 243.917969 263.996094 244.132812 264.320312 244.285156 264.683594 C 244.433594 265.046875 244.507812 265.421875 244.507812 265.816406 Z M 244.507812 265.816406 " fill-opacity="1" fill-rule="nonzero"/><path fill="#ffffff" d="M 139.941406 267.511719 C 139.941406 267.90625 139.863281 268.285156 139.714844 268.648438 C 139.5625 269.011719 139.351562 269.332031 139.074219 269.609375 C 138.792969 269.886719 138.472656 270.101562 138.113281 270.253906 C 137.75 270.402344 137.371094 270.480469 136.976562 270.480469 C 136.585938 270.480469 136.207031 270.402344 135.84375 270.253906 C 135.480469 270.101562 135.160156 269.886719 134.882812 269.609375 C 134.605469 269.332031 134.390625 269.011719 134.242188 268.648438 C 134.089844 268.285156 134.015625 267.90625 134.015625 267.511719 C 134.015625 267.121094 134.089844 266.742188 134.242188 266.378906 C 134.390625 266.015625 134.605469 265.695312 134.882812 265.417969 C 135.160156 265.136719 135.480469 264.921875 135.84375 264.773438 C 136.207031 264.621094 136.585938 264.546875 136.976562 264.546875 C 137.371094 264.546875 137.75 264.621094 138.113281 264.773438 C 138.472656 264.921875 138.792969 265.136719 139.074219 265.417969 C 139.351562 265.695312 139.5625 266.015625 139.714844 266.378906 C 139.863281 266.742188 139.941406 267.121094 139.941406 267.511719 Z M 139.941406 267.511719 " fill-opacity="1" fill-rule="nonzero"/><path fill="#ffffff" d="M 168.910156 98.261719 C 172.679688 81.738281 177.707031 65.5 183.933594 49.738281 C 182.789062 59.320312 181.929688 69.003906 182.839844 78.609375 C 183.648438 69.078125 184.457031 59.539062 185.257812 50.007812 C 185.472656 59.832031 185.683594 69.65625 185.890625 79.480469 C 186.566406 68.660156 186.921875 57.820312 186.964844 46.980469 C 191.753906 54.339844 194.917969 62.664062 197.136719 71.160156 C 199.359375 79.660156 200.667969 88.363281 201.960938 97.054688 C 191.125 96.183594 180.1875 96.585938 168.90625 98.265625 Z M 168.910156 98.261719 " fill-opacity="1" fill-rule="nonzero"/><path fill="#304c83" d="M 162.796875 283.324219 C 180.367188 286.394531 198.449219 286.523438 216.0625 283.707031 C 217.691406 221.496094 219.316406 159.292969 220.9375 97.085938 C 199.0625 94.105469 176.609375 95.417969 155.226562 100.917969 C 156.335938 155.667969 157.445312 210.414062 158.558594 265.164062 C 158.6875 271.539062 158.835938 278.042969 162.796875 283.324219 Z M 162.796875 283.324219 " fill-opacity="1" fill-rule="nonzero"/><path fill="#ffffff" d="M 162.796875 283.324219 C 180.367188 286.394531 198.449219 286.523438 216.0625 283.707031 C 217.691406 221.496094 219.316406 159.292969 220.9375 97.085938 C 199.0625 94.105469 176.609375 95.417969 155.226562 100.917969 C 156.335938 155.667969 157.445312 210.414062 158.558594 265.164062 C 158.6875 271.539062 158.835938 278.042969 162.796875 283.324219 Z M 162.796875 283.324219 " fill-opacity="0.31" fill-rule="nonzero"/><path fill="#ffffff" d="M 158.792969 100.261719 C 160.039062 139.632812 161.285156 179.007812 162.527344 218.378906 C 162.785156 226.574219 163.050781 234.8125 164.707031 242.839844 C 165.273438 245.609375 166.347656 248.738281 169 249.691406 C 171.519531 250.601562 174.386719 248.96875 175.777344 246.675781 C 177.167969 244.382812 177.445312 241.609375 177.679688 238.9375 C 180.019531 212.8125 182.359375 186.691406 184.691406 160.574219 C 185.476562 183.882812 186.265625 207.191406 187.054688 230.496094 C 188.804688 208.109375 190.558594 185.726562 192.308594 163.339844 C 193.671875 197.808594 195.035156 232.28125 196.390625 266.75 C 197.726562 239.246094 199.0625 211.742188 200.398438 184.238281 C 201.632812 217.773438 202.867188 251.304688 204.101562 284.839844 C 208.328125 286.742188 213.476562 283.890625 215.726562 279.824219 C 217.976562 275.761719 218.082031 270.898438 218.132812 266.253906 C 218.738281 210.882812 219.347656 155.515625 219.953125 100.140625 C 198.71875 93.402344 175.015625 94.8125 158.78125 100.25 Z M 158.792969 100.261719 " fill-opacity="0.64" fill-rule="nonzero"/><path fill="#ffffff" d="M 164.816406 100.226562 C 164.183594 137.273438 164.890625 174.347656 166.949219 211.34375 C 169.113281 189.265625 171.273438 167.1875 173.4375 145.109375 C 172.066406 172.644531 170.683594 200.183594 169.308594 227.71875 C 172.882812 192.542969 176.457031 157.375 180.03125 122.199219 C 179.484375 138.683594 178.941406 155.171875 178.398438 171.65625 C 180.308594 155.914062 182.222656 140.171875 184.136719 124.433594 C 186.261719 139.761719 187.0625 155.273438 186.535156 170.742188 C 187.121094 158.789062 187.703125 146.832031 188.285156 134.878906 C 188.246094 147.332031 188.207031 159.789062 188.167969 172.242188 C 189.75 156.839844 191.328125 141.441406 192.910156 126.035156 C 195.984375 144.617188 197.597656 163.449219 197.722656 182.289062 C 199.347656 166.039062 200.96875 149.792969 202.597656 133.539062 C 204.089844 177.46875 205.574219 221.40625 207.066406 265.339844 C 209.886719 209.933594 211.632812 154.46875 212.300781 98.992188 C 195.152344 94.886719 176.871094 95.65625 164.828125 100.214844 Z M 164.816406 100.226562 " fill-opacity="1" fill-rule="nonzero"/><path fill="#304c83" d="M 187.84375 121.765625 C 179.15625 122.011719 170.835938 127.613281 167.332031 135.578125 C 165.152344 140.523438 164.777344 146.253906 166.328125 151.4375 C 167.875 156.621094 171.328125 161.210938 175.894531 164.101562 C 183.851562 169.140625 195.011719 168.425781 202.253906 162.410156 C 209.5 156.398438 212.265625 145.546875 208.789062 136.785156 C 205.3125 128.027344 195.859375 122.035156 187.84375 121.765625 Z M 187.84375 121.765625 " fill-opacity="1" fill-rule="nonzero"/><path fill="#ffffff" d="M 183.023438 127.449219 C 176.765625 130.410156 170.929688 135.441406 169.457031 142.214844 C 168.40625 147.007812 169.769531 152.222656 172.878906 156.015625 C 175.984375 159.804688 180.738281 162.148438 185.621094 162.484375 C 190.507812 162.820312 195.472656 161.210938 199.347656 158.210938 C 202.265625 155.953125 204.609375 152.875 205.636719 149.335938 C 206.792969 145.355469 206.191406 140.953125 204.289062 137.265625 C 202.390625 133.582031 199.230469 130.613281 195.585938 128.652344 C 191.71875 126.574219 186.863281 125.644531 183.03125 127.453125 Z M 183.023438 127.449219 " fill-opacity="0.33" fill-rule="nonzero"/><path fill="#ffffff" d="M 170 148.902344 C 178.3125 142.277344 186.542969 135.542969 194.675781 128.695312 C 197.574219 128.976562 199.875 131.183594 201.921875 133.261719 C 192.847656 140.183594 184.050781 147.476562 175.574219 155.121094 C 175.105469 155.546875 174.550781 156.003906 173.914062 155.953125 C 173.292969 155.902344 172.828125 155.375 172.46875 154.867188 C 171.109375 152.941406 170.285156 150.652344 170 148.910156 Z M 170 148.902344 " fill-opacity="1" fill-rule="nonzero"/><path fill="#ffffff" d="M 178.195312 159.585938 C 186.792969 152.183594 195.328125 144.691406 203.773438 137.121094 C 204.964844 139.632812 205.585938 142.417969 205.574219 145.199219 C 199.769531 150.527344 193.964844 155.859375 188.15625 161.1875 C 187.496094 161.792969 186.765625 162.433594 185.871094 162.523438 C 185.269531 162.582031 184.679688 162.378906 184.109375 162.179688 C 182.554688 161.636719 181 161.09375 179.445312 160.546875 C 178.59375 160.25 177.730469 159.992188 178.203125 159.585938 Z M 178.195312 159.585938 " fill-opacity="1" fill-rule="nonzero"/><path fill="#fcb23b" d="M 162.433594 285.234375 L 213.730469 285.234375 L 213.730469 310.40625 L 162.433594 310.40625 Z M 162.433594 285.234375 " fill-opacity="1" fill-rule="nonzero"/><path fill="#fcb23b" d="M 213.730469 320.5625 L 162.433594 320.5625 L 162.433594 310.402344 L 213.730469 310.402344 Z M 213.730469 320.5625 " fill-opacity="1" fill-rule="nonzero"/><path fill="#fcb23b" d="M 162.433594 310.40625 L 162.433594 328.328125 C 162.433594 332.457031 165.441406 331.339844 169.90625 335.808594 C 174.230469 331.480469 177.375 332.460938 177.375 328.328125 L 177.375 310.40625 C 177.375 310.40625 162.4375 310.40625 162.4375 310.40625 Z M 162.433594 310.40625 " fill-opacity="1" fill-rule="nonzero"/><path fill="#fcb23b" d="M 198.792969 310.828125 L 198.792969 328.75 C 198.792969 332.878906 201.800781 331.761719 206.265625 336.230469 C 210.589844 331.898438 213.738281 332.882812 213.738281 328.75 L 213.738281 310.828125 C 213.738281 310.828125 198.796875 310.828125 198.796875 310.828125 Z M 198.792969 310.828125 " fill-opacity="1" fill-rule="nonzero"/><path fill="#d42328" d="M 180.613281 310.40625 L 180.613281 334.796875 C 180.613281 340.421875 183.621094 338.898438 188.085938 344.976562 C 192.410156 339.082031 195.554688 340.421875 195.554688 334.796875 L 195.554688 310.40625 C 195.554688 310.40625 180.617188 310.40625 180.617188 310.40625 Z M 180.613281 310.40625 " fill-opacity="1" fill-rule="nonzero"/><path fill="#ffffff" d="M 162.433594 297.820312 L 213.730469 297.820312 L 213.730469 310.40625 L 162.433594 310.40625 Z M 162.433594 297.820312 " fill-opacity="0.75" fill-rule="nonzero"/><path fill="#d42328" d="M 187.242188 320.449219 C 179.546875 291.636719 180.125 260.648438 188.902344 232.144531 C 195.574219 261.207031 195.011719 291.894531 187.242188 320.449219 Z M 187.242188 320.449219 " fill-opacity="1" fill-rule="nonzero"/><path fill="#fcb23b" d="M 187.667969 320.722656 C 182.117188 296.988281 181.375 272.140625 185.503906 248.113281 C 184.925781 257.230469 184.972656 266.390625 185.632812 275.5 C 185.65625 268.019531 186.097656 260.542969 186.957031 253.113281 C 187.035156 260.367188 187.113281 267.621094 187.191406 274.875 C 187.390625 267.429688 187.585938 259.980469 187.78125 252.535156 C 187.972656 261.347656 188.15625 270.160156 188.347656 278.976562 C 188.460938 267.664062 188.578125 256.359375 188.691406 245.046875 C 193.671875 270.242188 193.609375 296.425781 187.664062 320.722656 Z M 187.667969 320.722656 " fill-opacity="0.5" fill-rule="nonzero"/><path fill="#fcb23b" d="M 186.941406 318.105469 C 183.511719 303.066406 182.402344 287.496094 183.660156 272.117188 C 184.074219 277.433594 184.496094 282.75 184.910156 288.0625 C 185.003906 285.105469 185.105469 282.144531 185.203125 279.183594 C 185.578125 283.796875 185.953125 288.410156 186.328125 293.023438 C 185.710938 288.519531 185.785156 283.925781 186.542969 279.441406 C 186.609375 285.234375 186.675781 291.023438 186.75 296.8125 C 187.339844 288.871094 187.933594 280.929688 188.523438 272.984375 C 188.617188 280.671875 188.714844 288.363281 188.808594 296.050781 C 188.960938 285.226562 189.53125 274.410156 190.515625 263.632812 C 190.53125 269.613281 190.546875 275.59375 190.5625 281.578125 C 190.855469 273.398438 191.148438 265.214844 191.4375 257.039062 C 193.863281 277.941406 192.660156 299.269531 186.945312 318.105469 Z M 186.941406 318.105469 " fill-opacity="0.68" fill-rule="nonzero"/><path fill="#171744" d="M 221.386719 99.613281 C 221.269531 98.816406 220.679688 98.164062 219.894531 97.980469 C 197.15625 92.527344 176.222656 93.21875 154.023438 100.160156 C 153.179688 100.421875 152.609375 101.21875 152.644531 102.109375 C 153.390625 124.539062 154.238281 146.882812 155.0625 168.496094 C 156.480469 205.921875 157.957031 244.625 158.871094 283.453125 C 158.894531 284.441406 159.640625 285.261719 160.621094 285.367188 C 162.292969 285.558594 163.964844 285.761719 165.648438 285.96875 C 170.691406 286.582031 175.792969 287.191406 181.164062 287.550781 C 182.003906 287.613281 182.851562 287.660156 183.703125 287.703125 C 183.652344 286.390625 183.621094 285.066406 183.597656 283.734375 C 182.746094 283.6875 181.898438 283.636719 181.054688 283.582031 C 175.894531 283.226562 170.976562 282.632812 166.113281 282.042969 C 164.996094 281.90625 163.878906 281.773438 162.769531 281.644531 C 162.695312 278.742188 162.625 275.84375 162.550781 272.9375 C 162.511719 271.609375 162.476562 270.277344 162.445312 268.945312 C 161.523438 234.9375 160.246094 201.148438 158.996094 168.34375 C 158.191406 147.21875 157.363281 125.398438 156.628906 103.484375 C 177.105469 97.324219 196.53125 96.675781 217.5 101.472656 C 217.550781 108.792969 217.035156 143.609375 216.160156 191.683594 C 215.570312 223.929688 214.992188 252.84375 214.621094 269.078125 C 214.589844 270.511719 214.554688 271.84375 214.527344 273.074219 C 214.433594 276.960938 214.359375 279.796875 214.304688 281.378906 C 207.011719 282.917969 200.410156 283.636719 194.265625 283.851562 C 193.40625 283.886719 192.566406 283.902344 191.726562 283.914062 C 191.667969 285.234375 191.601562 286.554688 191.523438 287.871094 C 192.363281 287.863281 193.207031 287.84375 194.0625 287.816406 C 200.902344 287.601562 208.304688 286.777344 216.601562 284.925781 L 216.601562 284.914062 C 216.738281 284.886719 216.871094 284.839844 217.007812 284.777344 C 217.007812 284.777344 217.136719 284.714844 217.136719 284.714844 C 217.714844 284.390625 218.074219 283.8125 218.140625 283.1875 L 218.167969 283.1875 C 218.386719 281.207031 219.339844 234.382812 220.121094 191.332031 C 220.609375 164.484375 221.707031 101.808594 221.394531 99.601562 Z M 221.386719 99.613281 " fill-opacity="1" fill-rule="nonzero"/><path fill="#171744" d="M 109.917969 313.152344 C 109.617188 313.152344 109.3125 313.085938 109.03125 312.945312 C 108.3125 312.585938 107.886719 311.820312 107.949219 311.019531 C 108.953125 298.523438 110.003906 286.046875 111.019531 273.976562 C 111.464844 268.636719 111.910156 263.355469 112.339844 258.183594 C 112.363281 257.902344 112.449219 257.632812 112.582031 257.386719 C 121.710938 240.980469 130.988281 226.210938 140.925781 212.242188 C 141.167969 188.335938 141.730469 169.925781 142.746094 152.617188 C 142.765625 152.269531 142.878906 151.929688 143.070312 151.644531 L 154.164062 134.828125 C 154.765625 133.917969 155.988281 133.667969 156.898438 134.269531 C 157.804688 134.867188 158.058594 136.09375 157.457031 137.003906 L 146.652344 153.375 C 145.65625 170.617188 145.105469 189.007812 144.871094 212.898438 C 144.871094 213.304688 144.734375 213.695312 144.5 214.027344 C 134.582031 227.917969 125.332031 242.609375 116.234375 258.9375 C 115.8125 263.980469 115.382812 269.113281 114.945312 274.308594 C 114.058594 284.800781 113.148438 295.601562 112.269531 306.453125 C 127.894531 292.613281 143.460938 278.363281 158.597656 264.035156 C 159.386719 263.289062 160.636719 263.324219 161.382812 264.113281 C 162.128906 264.90625 162.097656 266.160156 161.304688 266.90625 C 144.953125 282.386719 128.097656 297.773438 111.207031 312.652344 C 110.839844 312.976562 110.371094 313.148438 109.90625 313.148438 Z M 109.917969 313.152344 " fill-opacity="1" fill-rule="nonzero"/><path fill="#171744" d="M 265.007812 310.910156 C 264.535156 310.910156 264.070312 310.742188 263.703125 310.417969 C 248.488281 297.011719 234.027344 283.75 215.347656 266.070312 C 214.554688 265.324219 214.523438 264.070312 215.269531 263.277344 C 216.015625 262.484375 217.265625 262.453125 218.054688 263.199219 C 235.191406 279.421875 248.773438 291.917969 262.648438 304.214844 C 261.769531 293.355469 260.855469 282.542969 259.972656 272.046875 C 259.535156 266.855469 259.105469 261.734375 258.683594 256.703125 C 249.585938 240.378906 240.339844 225.6875 230.417969 211.792969 C 230.183594 211.460938 230.054688 211.066406 230.046875 210.664062 C 229.8125 186.769531 229.261719 168.382812 228.265625 151.140625 L 217.460938 134.765625 C 216.859375 133.859375 217.109375 132.632812 218.023438 132.03125 C 218.929688 131.429688 220.152344 131.683594 220.753906 132.59375 L 231.847656 149.410156 C 232.039062 149.703125 232.152344 150.03125 232.175781 150.382812 C 233.183594 167.691406 233.746094 186.101562 233.992188 210.007812 C 243.9375 223.972656 253.214844 238.75 262.335938 255.152344 C 262.46875 255.398438 262.554688 255.667969 262.578125 255.949219 C 263.007812 261.117188 263.453125 266.382812 263.902344 271.714844 C 264.917969 283.789062 265.972656 296.273438 266.976562 308.78125 C 267.035156 309.585938 266.609375 310.34375 265.890625 310.710938 C 265.613281 310.851562 265.308594 310.917969 265.007812 310.917969 Z M 265.007812 310.910156 " fill-opacity="1" fill-rule="nonzero"/><path fill="#171744" d="M 187.753906 163.339844 C 177.265625 163.339844 168.726562 154.917969 168.726562 144.574219 C 168.726562 134.226562 177.265625 125.808594 187.753906 125.808594 C 198.242188 125.808594 206.78125 134.226562 206.78125 144.574219 C 206.78125 154.917969 198.242188 163.339844 187.753906 163.339844 Z M 187.753906 127.78125 C 178.351562 127.78125 170.703125 135.3125 170.703125 144.574219 C 170.703125 153.835938 178.351562 161.367188 187.753906 161.367188 C 197.15625 161.367188 204.804688 153.835938 204.804688 144.574219 C 204.804688 135.3125 197.15625 127.78125 187.753906 127.78125 Z M 187.753906 127.78125 " fill-opacity="1" fill-rule="nonzero"/><path fill="#171744" d="M 187.753906 168.414062 C 174.773438 168.414062 164.21875 157.84375 164.21875 144.847656 C 164.21875 131.851562 174.773438 121.28125 187.753906 121.28125 C 200.734375 121.28125 211.289062 131.851562 211.289062 144.847656 C 211.289062 157.84375 200.734375 168.414062 187.753906 168.414062 Z M 187.753906 123.257812 C 175.863281 123.257812 166.191406 132.941406 166.191406 144.847656 C 166.191406 156.757812 175.863281 166.4375 187.753906 166.4375 C 199.644531 166.4375 209.316406 156.757812 209.316406 144.847656 C 209.316406 132.941406 199.644531 123.257812 187.753906 123.257812 Z M 187.753906 123.257812 " fill-opacity="1" fill-rule="nonzero"/><path fill="#171744" d="M 183.839844 270.519531 C 183.765625 271.835938 183.714844 273.152344 183.671875 274.460938 C 182.824219 274.445312 181.980469 274.414062 181.136719 274.386719 C 174.925781 274.164062 168.726562 273.683594 162.550781 272.9375 C 162.113281 272.886719 161.675781 272.832031 161.234375 272.777344 C 160.148438 272.640625 159.382812 271.652344 159.523438 270.570312 C 159.65625 269.488281 160.644531 268.71875 161.726562 268.855469 C 161.96875 268.890625 162.203125 268.917969 162.445312 268.945312 C 168.703125 269.714844 175 270.214844 181.296875 270.4375 C 182.144531 270.472656 182.984375 270.496094 183.832031 270.519531 Z M 183.839844 270.519531 " fill-opacity="1" fill-rule="nonzero"/><path fill="#171744" d="M 215.195312 272.996094 C 214.976562 273.023438 214.75 273.046875 214.53125 273.074219 C 207.863281 273.84375 201.15625 274.308594 194.441406 274.464844 C 193.59375 274.488281 192.75 274.503906 191.90625 274.515625 C 191.898438 273.195312 191.882812 271.882812 191.847656 270.570312 C 192.695312 270.558594 193.539062 270.539062 194.382812 270.519531 C 201.148438 270.355469 207.910156 269.878906 214.628906 269.085938 C 214.660156 269.085938 214.695312 269.074219 214.730469 269.074219 C 215.8125 268.945312 216.792969 269.71875 216.921875 270.804688 C 217.050781 271.886719 216.277344 272.871094 215.195312 273 Z M 215.195312 272.996094 " fill-opacity="1" fill-rule="nonzero"/><path fill="#171744" d="M 155.238281 120.703125 C 154.511719 120.703125 153.816406 120.304688 153.46875 119.609375 C 152.980469 118.632812 153.378906 117.445312 154.351562 116.957031 C 163.433594 112.414062 174.308594 110.332031 186.699219 110.769531 C 197.65625 111.15625 208.199219 113.359375 218.929688 115.785156 C 219.996094 116.023438 220.664062 117.082031 220.421875 118.144531 C 220.183594 119.210938 219.128906 119.871094 218.066406 119.636719 C 207.527344 117.253906 197.183594 115.09375 186.566406 114.714844 C 174.847656 114.308594 164.597656 116.25 156.117188 120.496094 C 155.835938 120.636719 155.535156 120.703125 155.238281 120.703125 Z M 155.238281 120.703125 " fill-opacity="1" fill-rule="nonzero"/><g clip-path="url(#ec0ddbe109)"><path fill="#171744" d="M 154.699219 106.601562 C 154.699219 106.601562 154.675781 106.601562 154.671875 106.601562 C 153.582031 106.585938 152.710938 105.683594 152.730469 104.597656 C 152.953125 90.089844 155.894531 75.710938 161.472656 61.867188 C 166.976562 48.21875 174.761719 35.761719 184.613281 24.847656 C 184.964844 24.453125 185.460938 24.222656 185.988281 24.195312 C 186.515625 24.171875 187.023438 24.359375 187.410156 24.71875 C 197.6875 34.191406 206.226562 46.121094 212.105469 59.226562 C 218 72.367188 221.21875 86.683594 221.410156 100.625 C 221.421875 101.429688 220.945312 102.160156 220.210938 102.472656 C 219.753906 102.664062 219.257812 102.675781 218.808594 102.523438 C 218.570312 102.46875 218.140625 102.355469 217.753906 101.96875 C 217.097656 101.316406 216.996094 100.316406 217.449219 99.550781 C 216.777344 73.394531 205.183594 47.246094 186.210938 29.003906 C 177.296875 39.207031 170.21875 50.757812 165.144531 63.347656 C 159.746094 76.742188 156.898438 90.644531 156.683594 104.664062 C 156.667969 105.742188 155.785156 106.605469 154.710938 106.605469 Z M 218.054688 102.058594 Z M 218.054688 102.058594 Z M 218.054688 102.058594 Z M 218.054688 102.058594 Z M 218.054688 102.058594 " fill-opacity="1" fill-rule="nonzero"/></g><path fill="#171744" d="M 194.382812 270.519531 C 194.058594 256.972656 192.375 243.613281 189.332031 230.523438 C 189.195312 229.945312 188.683594 229.539062 188.097656 229.539062 L 188.089844 229.539062 C 187.496094 229.539062 186.984375 229.957031 186.855469 230.535156 C 183.800781 244.332031 181.949219 257.652344 181.296875 270.4375 C 181.230469 271.757812 181.175781 273.078125 181.136719 274.386719 C 181.035156 277.480469 181.011719 280.550781 181.050781 283.582031 C 181.074219 284.914062 181.105469 286.234375 181.15625 287.550781 C 181.617188 300.257812 183.363281 312.367188 186.390625 323.816406 C 186.535156 324.375 187.042969 324.761719 187.621094 324.761719 L 187.640625 324.761719 C 188.226562 324.75 188.722656 324.347656 188.859375 323.777344 C 191.617188 311.703125 193.359375 299.699219 194.070312 287.816406 C 194.152344 286.492188 194.222656 285.171875 194.273438 283.851562 C 194.402344 280.710938 194.457031 277.582031 194.445312 274.464844 C 194.441406 273.144531 194.417969 271.832031 194.390625 270.519531 Z M 191.523438 287.871094 C 190.917969 297.785156 189.589844 307.789062 187.539062 317.847656 C 185.375 308.242188 184.097656 298.183594 183.703125 287.710938 C 183.652344 286.394531 183.621094 285.070312 183.597656 283.738281 C 183.546875 280.683594 183.570312 277.589844 183.671875 274.464844 C 183.714844 273.15625 183.765625 271.84375 183.839844 270.523438 C 184.386719 259.695312 185.8125 248.472656 188.117188 236.898438 C 190.335938 247.957031 191.578125 259.195312 191.847656 270.570312 C 191.882812 271.882812 191.898438 273.203125 191.90625 274.515625 C 191.921875 277.640625 191.859375 280.769531 191.726562 283.914062 C 191.667969 285.234375 191.601562 286.554688 191.523438 287.871094 Z M 191.523438 287.871094 " fill-opacity="1" fill-rule="nonzero"/><path fill="#ffffff" d="M 274.644531 170.273438 C 274.644531 170.785156 274.546875 171.273438 274.351562 171.742188 C 274.15625 172.214844 273.878906 172.628906 273.519531 172.988281 C 273.160156 173.347656 272.746094 173.625 272.277344 173.820312 C 271.808594 174.011719 271.320312 174.109375 270.8125 174.109375 C 270.304688 174.109375 269.816406 174.011719 269.34375 173.820312 C 268.875 173.625 268.460938 173.347656 268.101562 172.988281 C 267.742188 172.628906 267.464844 172.214844 267.273438 171.742188 C 267.078125 171.273438 266.980469 170.785156 266.980469 170.273438 C 266.980469 169.765625 267.078125 169.277344 267.273438 168.808594 C 267.464844 168.335938 267.742188 167.921875 268.101562 167.5625 C 268.460938 167.203125 268.875 166.925781 269.34375 166.730469 C 269.816406 166.535156 270.304688 166.4375 270.8125 166.4375 C 271.320312 166.4375 271.808594 166.535156 272.277344 166.730469 C 272.746094 166.925781 273.160156 167.203125 273.519531 167.5625 C 273.878906 167.921875 274.15625 168.335938 274.351562 168.808594 C 274.546875 169.277344 274.644531 169.765625 274.644531 170.273438 Z M 274.644531 170.273438 " fill-opacity="1" fill-rule="nonzero"/><path fill="#ffffff" d="M 120.726562 206.039062 C 120.726562 206.289062 120.679688 206.527344 120.582031 206.757812 C 120.484375 206.988281 120.347656 207.191406 120.167969 207.367188 C 119.988281 207.542969 119.78125 207.679688 119.546875 207.773438 C 119.3125 207.867188 119.070312 207.917969 118.816406 207.917969 C 118.5625 207.917969 118.316406 207.867188 118.082031 207.773438 C 117.847656 207.679688 117.640625 207.542969 117.460938 207.367188 C 117.28125 207.191406 117.144531 206.988281 117.046875 206.757812 C 116.949219 206.527344 116.902344 206.289062 116.902344 206.039062 C 116.902344 205.792969 116.949219 205.550781 117.046875 205.324219 C 117.144531 205.09375 117.28125 204.890625 117.460938 204.714844 C 117.640625 204.539062 117.847656 204.402344 118.082031 204.308594 C 118.316406 204.210938 118.5625 204.164062 118.816406 204.164062 C 119.070312 204.164062 119.3125 204.210938 119.546875 204.308594 C 119.78125 204.402344 119.988281 204.539062 120.167969 204.714844 C 120.347656 204.890625 120.484375 205.09375 120.582031 205.324219 C 120.679688 205.550781 120.726562 205.792969 120.726562 206.039062 Z M 120.726562 206.039062 " fill-opacity="1" fill-rule="nonzero"/><path fill="#ffffff" d="M 97.859375 197.398438 C 97.859375 197.808594 97.820312 198.21875 97.742188 198.621094 C 97.664062 199.027344 97.546875 199.421875 97.394531 199.800781 C 97.242188 200.183594 97.054688 200.546875 96.832031 200.886719 C 96.609375 201.230469 96.355469 201.550781 96.074219 201.839844 C 95.789062 202.132812 95.480469 202.394531 95.148438 202.621094 C 94.816406 202.851562 94.464844 203.046875 94.09375 203.203125 C 93.722656 203.359375 93.34375 203.480469 92.949219 203.5625 C 92.558594 203.640625 92.160156 203.683594 91.761719 203.683594 C 91.359375 203.683594 90.964844 203.640625 90.570312 203.5625 C 90.179688 203.480469 89.796875 203.359375 89.425781 203.203125 C 89.058594 203.046875 88.707031 202.851562 88.375 202.621094 C 88.039062 202.394531 87.734375 202.132812 87.449219 201.839844 C 87.167969 201.550781 86.914062 201.230469 86.691406 200.886719 C 86.46875 200.546875 86.28125 200.183594 86.128906 199.800781 C 85.972656 199.421875 85.859375 199.027344 85.78125 198.621094 C 85.703125 198.21875 85.664062 197.808594 85.664062 197.398438 C 85.664062 196.984375 85.703125 196.574219 85.78125 196.171875 C 85.859375 195.765625 85.972656 195.375 86.128906 194.992188 C 86.28125 194.609375 86.46875 194.25 86.691406 193.90625 C 86.914062 193.5625 87.167969 193.246094 87.449219 192.953125 C 87.734375 192.660156 88.039062 192.402344 88.375 192.171875 C 88.707031 191.941406 89.058594 191.75 89.425781 191.589844 C 89.796875 191.433594 90.179688 191.3125 90.570312 191.234375 C 90.964844 191.152344 91.359375 191.113281 91.761719 191.113281 C 92.160156 191.113281 92.558594 191.152344 92.949219 191.234375 C 93.34375 191.3125 93.722656 191.433594 94.09375 191.589844 C 94.464844 191.75 94.816406 191.941406 95.148438 192.171875 C 95.480469 192.402344 95.789062 192.660156 96.074219 192.953125 C 96.355469 193.246094 96.609375 193.5625 96.832031 193.90625 C 97.054688 194.25 97.242188 194.609375 97.394531 194.992188 C 97.546875 195.375 97.664062 195.765625 97.742188 196.171875 C 97.820312 196.574219 97.859375 196.984375 97.859375 197.398438 Z M 97.859375 197.398438 " fill-opacity="1" fill-rule="nonzero"/><path fill="#ffffff" d="M 243.59375 163.277344 C 243.59375 163.53125 243.546875 163.773438 243.453125 164.007812 C 243.355469 164.246094 243.222656 164.453125 243.046875 164.632812 C 242.871094 164.8125 242.667969 164.949219 242.4375 165.046875 C 242.207031 165.144531 241.96875 165.191406 241.722656 165.191406 C 241.472656 165.191406 241.234375 165.144531 241.003906 165.046875 C 240.773438 164.949219 240.574219 164.8125 240.398438 164.632812 C 240.222656 164.453125 240.085938 164.246094 239.992188 164.007812 C 239.894531 163.773438 239.847656 163.53125 239.847656 163.277344 C 239.847656 163.023438 239.894531 162.777344 239.992188 162.542969 C 240.085938 162.308594 240.222656 162.101562 240.398438 161.921875 C 240.574219 161.742188 240.773438 161.605469 241.003906 161.507812 C 241.234375 161.410156 241.472656 161.363281 241.722656 161.363281 C 241.96875 161.363281 242.207031 161.410156 242.4375 161.507812 C 242.667969 161.605469 242.871094 161.742188 243.046875 161.921875 C 243.222656 162.101562 243.355469 162.308594 243.453125 162.542969 C 243.546875 162.777344 243.59375 163.023438 243.59375 163.277344 Z M 243.59375 163.277344 " fill-opacity="1" fill-rule="nonzero"/></svg>